<?xml version="1.0" encoding="UTF-8" standalone="no"?>
<!-- Created with Inkscape (http://www.inkscape.org/) -->

<svg
   xmlns:dc="http://purl.org/dc/elements/1.1/"
   xmlns:cc="http://creativecommons.org/ns#"
   xmlns:rdf="http://www.w3.org/1999/02/22-rdf-syntax-ns#"
   xmlns:svg="http://www.w3.org/2000/svg"
   xmlns="http://www.w3.org/2000/svg"
   version="1.1"
   width="768"
   height="768"
   id="svg4026">
  <defs
     id="defs4028">
    <clipPath
       id="clipPath3197">
      <path
         d="m 373.817,720.642 179.194,0 0,85.323 -179.194,0 0,-85.323 z"
         id="path3199" />
    </clipPath>
  </defs>
  <metadata
     id="metadata4031">
    <rdf:RDF>
      <cc:Work
         rdf:about="">
        <dc:format>image/svg+xml</dc:format>
        <dc:type
           rdf:resource="http://purl.org/dc/dcmitype/StillImage" />
        <dc:title></dc:title>
      </cc:Work>
    </rdf:RDF>
  </metadata>
  <g
     id="layer1">
    <g
       transform="matrix(8.8822835,0,0,-8.8822835,-3315.3111,7165.8778)"
       id="g3193"
       style="fill:#003d8f;fill-opacity:1;stroke:#003d8f;stroke-opacity:1">
      <g
         clip-path="url(#clipPath3197)"
         id="g3195"
         style="fill:#003d8f;fill-opacity:1;stroke:#003d8f;stroke-opacity:1">
        <g
           transform="translate(385.336,803.832)"
           id="g3201"
           style="fill:#003d8f;fill-opacity:1;stroke:#003d8f;stroke-opacity:1">
          <path
             d="m 0,0 c 0,0 -9.386,0 -9.386,-9.386 l 0,-62.292 c 0,0 0,-9.386 9.386,-9.386 l 62.292,0 c 0,0 9.386,0 9.386,9.386 l 0,62.292 c 0,0 0,9.386 -9.386,9.386 L 0,0 z"
             id="path3203"
             style="fill:#003d8f;fill-opacity:1;stroke:#003d8f;stroke-width:4.26599979;stroke-linecap:butt;stroke-linejoin:miter;stroke-miterlimit:4;stroke-opacity:1;stroke-dasharray:none" />
        </g>
      </g>
    </g>
    <g
       transform="matrix(8.8822835,0,0,-8.8822835,216.13382,517.8883)"
       id="g3205"
       style="fill:#ffffff;fill-opacity:1;stroke:#ffffff;stroke-opacity:1">
      <path
         d="m 0,0 9.521,29.922 -5.694,0 -6.511,-22.146 -6.728,22.146 -5.822,0 L -5.731,0 0,0 z m 27.473,29.922 -5.096,0 0,-10.777 c -1.572,2.014 -3.434,3.021 -5.586,3.021 -2.346,0 -4.286,-0.956 -5.821,-2.868 -1.536,-1.912 -2.303,-4.704 -2.303,-8.378 0,-3.593 0.788,-6.392 2.366,-8.399 1.578,-2.007 3.473,-3.011 5.686,-3.011 1.088,0 2.167,0.303 3.237,0.908 1.07,0.606 1.998,1.528 2.784,2.766 l 0,-3.184 4.733,0 0,29.922 z M 15.096,16.155 c 0.816,1.082 1.828,1.623 3.037,1.623 1.245,0 2.267,-0.548 3.065,-1.643 0.798,-1.096 1.197,-2.889 1.197,-5.379 0,-2.231 -0.411,-3.908 -1.233,-5.031 -0.822,-1.122 -1.82,-1.684 -2.993,-1.684 -1.475,0 -2.623,0.748 -3.445,2.245 -0.569,1.034 -0.853,2.708 -0.853,5.022 0,2.149 0.409,3.765 1.225,4.847 M 34.215,2.092 c 1.801,-1.748 4.382,-2.623 7.744,-2.623 2.309,0 4.237,0.365 5.785,1.092 1.547,0.728 2.744,1.84 3.591,3.337 0.846,1.497 1.269,3.103 1.269,4.817 0,1.891 -0.353,3.48 -1.061,4.766 -0.707,1.286 -1.686,2.3 -2.938,3.042 -1.251,0.741 -3.182,1.459 -5.794,2.153 -2.611,0.694 -4.256,1.36 -4.933,2 -0.532,0.503 -0.798,1.109 -0.798,1.816 0,0.776 0.284,1.395 0.853,1.858 0.882,0.721 2.103,1.082 3.663,1.082 1.511,0 2.645,-0.337 3.4,-1.011 0.756,-0.673 1.248,-1.779 1.478,-3.317 l 5.368,0.266 c -0.084,2.748 -0.97,4.946 -2.656,6.593 -1.687,1.646 -4.199,2.469 -7.536,2.469 -2.043,0 -3.787,-0.347 -5.232,-1.041 -1.445,-0.694 -2.551,-1.704 -3.319,-3.031 -0.767,-1.326 -1.151,-2.752 -1.151,-4.276 0,-2.367 0.816,-4.375 2.448,-6.021 1.161,-1.17 3.18,-2.157 6.058,-2.959 2.236,-0.626 3.669,-1.062 4.298,-1.307 0.918,-0.367 1.562,-0.799 1.931,-1.296 0.369,-0.497 0.553,-1.099 0.553,-1.806 0,-1.102 -0.438,-2.065 -1.315,-2.888 -0.876,-0.823 -2.179,-1.235 -3.908,-1.235 -1.632,0 -2.929,0.462 -3.89,1.388 -0.961,0.925 -1.599,2.374 -1.913,4.347 L 30.987,9.736 c 0.35,-3.348 1.426,-5.895 3.228,-7.644"
         id="path3207"
         style="fill:#ffffff;fill-opacity:1;fill-rule:nonzero;stroke:#ffffff;stroke-opacity:1" />
    </g>
  </g>
</svg>
